<svg width="521" height="333" viewBox="0 0 521 333" fill="none" xmlns="http://www.w3.org/2000/svg">
<path d="M167.711 72.8574C167.711 76.7246 167.271 80.3281 166.393 83.668C165.514 87.0078 164.371 90.1279 162.965 93.0283C161.559 95.8408 159.933 98.3896 158.087 100.675C156.241 102.96 154.352 105.025 152.418 106.871C154.879 106.871 157.032 107.354 158.878 108.321C160.812 109.288 161.778 111.31 161.778 114.386C161.778 120.89 160.768 128.316 158.746 136.666C156.725 145.016 153.912 153.805 150.309 163.033C146.793 172.174 142.574 181.534 137.652 191.114C132.818 200.694 127.545 209.967 121.832 218.932C116.119 227.896 110.099 236.334 103.771 244.244C97.5303 252.154 91.2021 259.054 84.7861 264.942C78.3701 270.919 71.998 275.621 65.6699 279.049C59.4297 282.477 53.4971 284.19 47.8721 284.19C43.6533 284.19 39.3906 283.443 35.084 281.949C30.8652 280.543 27.042 278.214 23.6143 274.962C20.2744 271.71 17.5498 267.403 15.4404 262.042C13.3311 256.769 12.2764 250.309 12.2764 242.662C12.2764 232.643 13.5508 222.228 16.0996 211.417C18.6484 200.519 22.1641 189.664 26.6465 178.854C31.1289 167.955 36.3584 157.276 42.335 146.817C48.3115 136.271 54.7275 126.295 61.583 116.891C68.5264 107.398 75.6895 98.6533 83.0723 90.6553C90.543 82.5693 97.9258 75.626 105.221 69.8252C112.516 64.0244 119.591 59.498 126.446 56.2461C133.302 52.9063 139.586 51.2363 145.299 51.2363C149.693 51.2363 153.341 51.8955 156.241 53.2139C159.142 54.4443 161.427 56.0703 163.097 58.0918C164.854 60.1133 166.041 62.4424 166.656 65.0791C167.359 67.6279 167.711 70.2207 167.711 72.8574ZM62.5059 265.338C65.4941 265.338 68.834 263.932 72.5254 261.119C76.3047 258.307 80.2158 254.439 84.2588 249.518C88.3018 244.596 92.3887 238.795 96.5195 232.115C100.738 225.436 104.825 218.272 108.78 210.626C112.735 202.892 116.471 194.85 119.986 186.5C123.59 178.15 126.798 169.801 129.61 161.451C132.423 153.102 134.752 144.972 136.598 137.062C138.443 129.151 139.674 121.769 140.289 114.913C139.322 115.44 138.399 115.836 137.521 116.1C136.642 116.275 135.938 116.363 135.411 116.363C134.181 116.363 133.302 116.231 132.774 115.968C132.335 115.704 132.115 114.825 132.115 113.331C132.467 110.694 133.434 107.838 135.016 104.762C136.598 101.686 138.268 98.5215 140.025 95.2695C141.783 91.9297 143.321 88.502 144.64 84.9863C146.046 81.4707 146.749 77.9551 146.749 74.4395C146.749 71.9785 146.266 69.7373 145.299 67.7158C144.42 65.6943 142.662 64.6836 140.025 64.6836C136.246 64.6836 131.983 66.3096 127.237 69.5615C122.579 72.7256 117.657 77.1201 112.472 82.7451C107.374 88.3701 102.145 95.0498 96.7832 102.784C91.5098 110.431 86.3682 118.736 81.3584 127.701C76.3486 136.666 71.6465 146.07 67.252 155.914C62.8574 165.758 59.0342 175.646 55.7822 185.577C52.5303 195.509 49.9375 205.309 48.0039 214.977C46.1582 224.645 45.2354 233.785 45.2354 242.398C45.2354 245.65 45.499 248.683 46.0264 251.495C46.6416 254.22 47.6084 256.593 48.9268 258.614C50.333 260.724 52.1348 262.35 54.332 263.492C56.5293 264.723 59.2539 265.338 62.5059 265.338ZM256.964 210.23C253.888 217.174 250.504 223.722 246.812 229.874C243.209 235.938 239.43 241.256 235.475 245.826C231.52 250.309 227.477 253.868 223.346 256.505C219.215 259.142 215.128 260.46 211.085 260.46C208.272 260.46 205.812 259.889 203.702 258.746C201.681 257.604 199.967 256.021 198.561 254C197.242 251.979 196.231 249.562 195.528 246.749C194.913 243.937 194.605 240.86 194.605 237.521C194.605 232.95 195.484 227.94 197.242 222.491C199.088 216.954 201.373 211.329 204.098 205.616C206.91 199.903 209.986 194.278 213.326 188.741C216.754 183.204 220.05 178.062 223.214 173.316C221.017 174.811 218.468 176.7 215.567 178.985C212.755 181.271 209.767 183.775 206.603 186.5C203.526 189.225 200.362 192.125 197.11 195.201C193.858 198.189 190.782 201.178 187.882 204.166C184.981 207.066 182.301 209.879 179.84 212.604C177.379 215.328 175.357 217.789 173.775 219.986C168.941 226.578 164.986 232.511 161.91 237.784C158.834 243.058 156.417 247.364 154.659 250.704C153.429 253.165 152.198 254.835 150.968 255.714C149.737 256.593 148.463 257.032 147.145 257.032C146.002 257.032 144.815 256.681 143.585 255.978C142.354 255.362 141.739 254.176 141.739 252.418C141.739 251.363 142.223 249.21 143.189 245.958C144.156 242.706 145.475 238.839 147.145 234.356C148.727 229.786 150.572 224.776 152.682 219.327C154.703 213.878 156.856 208.385 159.142 202.848C161.339 197.223 163.536 191.773 165.733 186.5C167.931 181.139 169.952 176.349 171.798 172.13C173.644 167.911 175.226 164.439 176.544 161.715C177.862 158.902 178.741 157.276 179.181 156.837C180.323 155.694 182.169 155.475 184.718 156.178C187.354 156.881 189.947 157.979 192.496 159.474C193.727 160.265 194.649 161.056 195.265 161.847C195.968 162.638 196.495 163.385 196.847 164.088C197.022 164.527 197.066 164.923 196.979 165.274C196.891 165.626 196.759 165.934 196.583 166.197C196.319 166.461 195.309 168.043 193.551 170.943C191.793 173.756 189.64 177.403 187.091 181.886C184.542 186.28 181.729 191.246 178.653 196.783C175.577 202.32 172.633 207.901 169.82 213.526C174.039 207.726 178.126 202.54 182.081 197.97C186.036 193.399 189.552 189.444 192.628 186.104C196.144 182.325 199.527 178.941 202.779 175.953C212.184 167.691 219.479 161.539 224.664 157.496C229.938 153.453 233.98 151.432 236.793 151.432C237.936 151.432 239.122 151.827 240.353 152.618C241.671 153.321 242.857 154.288 243.912 155.519C244.967 156.749 245.846 158.155 246.549 159.737C247.252 161.319 247.604 162.945 247.604 164.615C247.604 166.285 246.812 168.57 245.23 171.471C243.648 174.283 241.671 177.623 239.298 181.49C236.925 185.27 234.332 189.488 231.52 194.146C228.707 198.717 226.114 203.551 223.741 208.648C221.368 213.746 219.391 219.02 217.809 224.469C216.227 229.918 215.436 235.367 215.436 240.816C215.436 243.365 215.787 245.562 216.49 247.408C217.281 249.254 218.556 250.177 220.313 250.177C222.159 250.177 224.444 248.902 227.169 246.354C229.981 243.805 232.882 240.509 235.87 236.466C238.946 232.423 241.979 227.94 244.967 223.019C248.043 218.009 250.724 213.131 253.009 208.385C253.712 206.979 254.503 206.275 255.382 206.275C255.821 206.275 256.261 206.451 256.7 206.803C257.228 207.066 257.491 207.594 257.491 208.385C257.491 208.912 257.315 209.527 256.964 210.23ZM345.162 210.23C343.316 215.152 340.987 220.294 338.175 225.655C335.45 231.017 332.418 235.938 329.078 240.421C325.738 244.815 322.179 248.463 318.399 251.363C314.62 254.176 310.841 255.582 307.062 255.582C304.513 255.582 302.403 254.967 300.733 253.736C299.063 252.418 297.701 250.836 296.646 248.99C295.68 247.057 294.977 244.991 294.537 242.794C294.098 240.597 293.878 238.575 293.878 236.729C293.878 233.917 294.186 230.665 294.801 226.974C295.504 223.282 296.822 219.063 298.756 214.317C295.768 218.36 292.604 222.491 289.264 226.71C286.012 230.841 282.672 234.576 279.244 237.916C275.904 241.256 272.521 244.024 269.093 246.222C265.753 248.331 262.589 249.386 259.601 249.386C258.194 249.386 256.7 249.034 255.118 248.331C253.536 247.54 252.086 246.441 250.768 245.035C249.361 243.541 248.219 241.739 247.34 239.63C246.461 237.433 246.021 234.928 246.021 232.115C246.021 227.369 247.12 222.14 249.317 216.427C251.515 210.626 254.283 204.825 257.623 199.024C261.051 193.224 264.83 187.599 268.961 182.149C273.092 176.7 277.091 171.954 280.958 167.911C284.474 164.132 287.77 160.924 290.846 158.287C294.01 155.65 296.954 153.541 299.679 151.959C302.491 150.289 305.128 149.103 307.589 148.399C310.05 147.608 312.423 147.169 314.708 147.081C316.817 147.081 318.575 147.345 319.981 147.872C321.388 148.312 322.486 148.927 323.277 149.718C324.068 150.509 324.596 151.432 324.859 152.486C325.211 153.541 325.387 154.64 325.387 155.782C325.387 157.013 325.035 158.595 324.332 160.528C323.629 162.462 322.662 164.396 321.432 166.329C320.201 168.263 318.751 169.933 317.081 171.339C315.499 172.657 313.785 173.316 311.939 173.316C311.236 173.316 310.797 173.053 310.621 172.525C310.445 171.998 310.357 171.339 310.357 170.548C310.357 169.054 310.533 167.296 310.885 165.274C311.236 163.253 311.412 161.495 311.412 160.001C311.412 158.683 311.236 157.76 310.885 157.232C310.621 156.617 310.006 156.31 309.039 156.31C306.754 157.276 304.293 159.166 301.656 161.979C299.107 164.703 296.559 167.955 294.01 171.734C291.461 175.426 289 179.469 286.627 183.863C284.342 188.17 282.276 192.477 280.431 196.783C278.673 201.002 277.267 205.045 276.212 208.912C275.157 212.691 274.63 215.855 274.63 218.404C274.63 220.25 274.894 221.7 275.421 222.755C275.948 223.81 276.607 224.337 277.398 224.337C278.014 224.337 278.98 223.766 280.299 222.623C281.617 221.48 283.111 219.986 284.781 218.141C286.539 216.295 288.341 214.229 290.187 211.944C292.032 209.571 293.834 207.242 295.592 204.957C297.438 202.672 299.107 200.519 300.602 198.497C302.096 196.476 303.282 194.806 304.161 193.487C306.446 190.147 308.028 187.555 308.907 185.709C309.874 183.863 310.885 182.94 311.939 182.94C312.379 182.94 312.994 183.292 313.785 183.995C314.664 184.698 315.499 185.533 316.29 186.5C317.169 187.379 317.916 188.302 318.531 189.269C319.146 190.235 319.454 190.938 319.454 191.378C319.454 192.608 318.883 194.366 317.74 196.651C316.598 198.849 315.016 202.408 312.994 207.33C310.709 212.604 308.995 217.525 307.853 222.096C306.798 226.666 306.271 230.709 306.271 234.225C306.271 235.455 306.358 236.686 306.534 237.916C306.71 239.146 307.018 240.289 307.457 241.344C307.896 242.311 308.512 243.146 309.303 243.849C310.094 244.464 311.148 244.771 312.467 244.771C314.576 244.771 316.729 243.937 318.927 242.267C321.212 240.509 323.365 238.312 325.387 235.675C327.496 233.038 329.474 230.226 331.319 227.237C333.165 224.161 334.791 221.261 336.197 218.536C337.604 215.812 338.702 213.526 339.493 211.681C340.372 209.747 340.899 208.648 341.075 208.385C341.778 206.979 342.613 206.275 343.58 206.275C344.107 206.275 344.591 206.451 345.03 206.803C345.47 207.154 345.689 207.682 345.689 208.385C345.689 208.912 345.514 209.527 345.162 210.23ZM406.729 239.103C406.729 235.06 407.433 230.665 408.839 225.919C410.333 221.085 412.311 216.163 414.771 211.153C417.232 206.056 420.045 200.914 423.209 195.729C426.373 190.455 429.625 185.313 432.965 180.304C432.789 180.479 432.613 180.655 432.438 180.831C432.35 180.919 432.262 181.051 432.174 181.227C431.998 181.402 431.91 181.534 431.91 181.622C430.504 183.204 428.746 185.182 426.637 187.555C424.527 189.928 422.198 192.608 419.649 195.597C417.188 198.497 414.596 201.617 411.871 204.957C409.146 208.297 406.378 211.681 403.565 215.108C400.841 218.448 398.204 221.788 395.655 225.128C393.106 228.38 390.777 231.412 388.668 234.225C385.24 238.883 382.472 242.618 380.362 245.431C378.341 248.243 376.715 250.396 375.484 251.891C374.254 253.385 373.331 254.352 372.716 254.791C372.101 255.318 371.485 255.582 370.87 255.582C370.167 255.582 369.244 255.406 368.102 255.055C366.959 254.703 365.86 254.176 364.806 253.473C363.751 252.682 362.828 251.759 362.037 250.704C361.246 249.649 360.851 248.419 360.851 247.013C360.851 246.046 361.114 245.035 361.642 243.98C364.806 236.422 368.146 228.863 371.661 221.305C373.155 218.053 374.737 214.669 376.407 211.153C378.077 207.638 379.791 204.122 381.549 200.606C383.395 197.003 385.24 193.487 387.086 190.06C389.02 186.632 390.909 183.38 392.755 180.304C389.942 183.116 386.954 186.28 383.79 189.796C380.626 193.224 377.462 196.739 374.298 200.343C371.222 203.858 368.277 207.33 365.465 210.758C362.652 214.186 360.235 217.262 358.214 219.986C353.468 226.49 349.601 232.247 346.612 237.257C343.712 242.179 341.251 246.485 339.229 250.177C337.999 252.374 336.9 254.044 335.934 255.187C334.879 256.417 333.385 257.032 331.451 257.032C330.396 257.032 329.254 256.681 328.023 255.978C326.705 255.362 326.046 254.176 326.046 252.418C326.046 251.363 326.529 249.298 327.496 246.222C328.463 243.058 329.737 239.322 331.319 235.016C332.813 230.621 334.571 225.831 336.593 220.646C338.526 215.46 340.548 210.23 342.657 204.957C344.767 199.596 346.832 194.41 348.854 189.4C350.875 184.391 352.677 179.908 354.259 175.953C355.929 171.91 357.247 168.614 358.214 166.065C359.269 163.517 359.884 162.066 360.06 161.715C360.235 161.363 360.763 161.1 361.642 160.924C362.608 160.748 363.707 160.704 364.938 160.792C366.168 160.88 367.442 161.1 368.761 161.451C370.079 161.803 371.222 162.33 372.188 163.033C374.825 164.967 376.539 166.681 377.33 168.175C377.857 168.966 378.121 169.581 378.121 170.021C378.121 170.372 377.242 171.954 375.484 174.767C373.814 177.491 371.661 181.051 369.024 185.445C366.388 189.752 363.487 194.674 360.323 200.211C357.159 205.748 354.171 211.417 351.358 217.218C357.159 209.044 362.081 202.276 366.124 196.915C370.167 191.554 373.463 187.247 376.012 183.995C379 180.216 381.417 177.271 383.263 175.162C390.118 166.373 395.567 160.177 399.61 156.573C403.741 152.97 406.466 151.168 407.784 151.168C408.927 151.168 410.069 151.52 411.212 152.223C412.442 152.926 413.541 153.893 414.508 155.123C415.475 156.266 416.266 157.628 416.881 159.21C417.496 160.704 417.804 162.33 417.804 164.088C417.804 165.055 417.716 166.065 417.54 167.12C417.364 168.087 417.013 169.054 416.485 170.021C414.903 172.921 412.97 176.437 410.685 180.567C408.399 184.61 405.982 188.917 403.434 193.487C400.973 198.058 398.424 202.76 395.787 207.594C393.15 212.34 390.689 216.822 388.404 221.041C393.15 214.361 397.501 208.429 401.456 203.243C405.499 198.058 409.015 193.663 412.003 190.06C415.519 185.841 418.639 182.237 421.363 179.249C425.406 174.854 428.79 171.163 431.515 168.175C434.327 165.187 436.656 162.77 438.502 160.924C440.348 159.078 441.798 157.76 442.853 156.969C443.995 156.178 444.918 155.782 445.621 155.782C446.676 155.782 447.818 156.222 449.049 157.101C450.279 157.892 451.378 158.902 452.345 160.133C453.399 161.363 454.234 162.77 454.85 164.352C455.553 165.846 455.904 167.296 455.904 168.702C455.904 170.548 455.157 172.921 453.663 175.821C452.257 178.634 450.455 181.886 448.258 185.577C446.061 189.269 443.688 193.268 441.139 197.574C438.678 201.881 436.349 206.407 434.151 211.153C431.954 215.812 430.108 220.689 428.614 225.787C427.208 230.797 426.505 235.807 426.505 240.816C426.505 243.365 426.9 245.562 427.691 247.408C428.57 249.254 429.889 250.177 431.646 250.177C433.492 250.177 435.777 248.902 438.502 246.354C441.227 243.805 444.083 240.509 447.071 236.466C450.147 232.423 453.18 227.94 456.168 223.019C459.244 218.009 461.969 213.131 464.342 208.385C464.605 207.857 464.913 207.374 465.265 206.935C465.704 206.495 466.188 206.275 466.715 206.275C467.242 206.275 467.726 206.451 468.165 206.803C468.604 207.066 468.824 207.594 468.824 208.385C468.824 208.912 468.648 209.527 468.297 210.23C465.221 217.174 461.837 223.722 458.146 229.874C454.542 235.938 450.763 241.256 446.808 245.826C442.853 250.309 438.81 253.868 434.679 256.505C430.548 259.142 426.461 260.46 422.418 260.46C419.605 260.46 417.188 259.889 415.167 258.746C413.233 257.604 411.651 256.065 410.421 254.132C409.19 252.198 408.268 249.957 407.652 247.408C407.037 244.771 406.729 242.003 406.729 239.103Z" fill="white"/>
</svg>
